<svg data-name="Layer 1" xmlns="http://www.w3.org/2000/svg" viewBox="0 0 182.87 41.55"><title>logo</title><path d="M.59 15.62a8.32 8.32 0 0 0 4.21 1.19c2.4 0 3.81-1.27 3.81-3.1s-1-2.67-3.43-3.62C2.18 9.04.38 7.5.38 4.93.38 2.1 2.73-.01 6.26-.01a8.27 8.27 0 0 1 4 .89L9.61 2.8a7.24 7.24 0 0 0-3.46-.86c-2.48 0-3.43 1.48-3.43 2.73 0 1.7 1.11 2.54 3.62 3.51 3.08 1.19 4.64 2.67 4.64 5.34s-2.08 5.24-6.37 5.24A9.41 9.41 0 0 1-.03 17.6zM19.57 2.29h-5.53v-2h13.47v2h-5.56v16.2h-2.38zm12.77 10.47l-1.89 5.72h-2.43L34.2.29h2.83l6.21 18.19h-2.51l-1.94-5.72zm6-1.84l-1.78-5.24c-.41-1.19-.67-2.27-.94-3.32h-.05c-.27 1.08-.57 2.19-.92 3.29l-1.78 5.26zM47.81.54a24.44 24.44 0 0 1 4.51-.38c2.51 0 4.13.46 5.26 1.48a4.53 4.53 0 0 1 1.43 3.46 4.78 4.78 0 0 1-3.43 4.64v.08c1.4.49 2.24 1.78 2.67 3.67a29 29 0 0 0 1.4 5h-2.43a23.5 23.5 0 0 1-1.21-4.35c-.54-2.51-1.51-3.46-3.64-3.54h-2.21v7.88h-2.35zm2.35 8.29h2.4c2.51 0 4.1-1.38 4.1-3.46 0-2.35-1.7-3.37-4.18-3.4a9.64 9.64 0 0 0-2.32.22zm34.4 9.06a11.66 11.66 0 0 1-4.8.86c-5.13 0-9-3.24-9-9.2 0-5.7 3.86-9.56 9.5-9.56a9.75 9.75 0 0 1 4.32.81l-.57 1.92a8.56 8.56 0 0 0-3.67-.76c-4.26 0-7.1 2.73-7.1 7.5 0 4.45 2.56 7.31 7 7.31a9.4 9.4 0 0 0 3.83-.76zM89.4.29h2.35v16.22h7.77v2H89.4zm29.12 8.9c0 6.26-3.81 9.58-8.45 9.58-4.8 0-8.18-3.72-8.18-9.23 0-5.78 3.59-9.56 8.45-9.56s8.18 3.82 8.18 9.21zm-14.12.3c0 3.89 2.11 7.37 5.8 7.37s5.83-3.43 5.83-7.56c0-3.62-1.89-7.4-5.8-7.4s-5.83 3.6-5.83 7.6zm21.85-7.2h-5.53v-2h13.47v2h-5.56v16.2h-2.37zm14.15-2V7.9h8.8V.29h2.38v18.2h-2.38V9.96h-8.8v8.53h-2.3V.29zm26.62 9.67h-7.07v6.56h7.88v2H157.6V.29h9.8v2h-7.48v5.75h7.07zm5.38 5.66a8.31 8.31 0 0 0 4.21 1.19c2.4 0 3.81-1.27 3.81-3.1s-1-2.67-3.43-3.62c-3-1.05-4.8-2.59-4.8-5.16 0-2.83 2.35-4.94 5.88-4.94a8.26 8.26 0 0 1 4 .89l-.65 1.92a7.24 7.24 0 0 0-3.46-.86c-2.48 0-3.43 1.48-3.43 2.73 0 1.7 1.11 2.54 3.62 3.51 3.08 1.19 4.64 2.67 4.64 5.34s-2.08 5.24-6.37 5.24a9.4 9.4 0 0 1-4.64-1.16zm-119 21.57a5.28 5.28 0 0 1-.42 2.19 3.2 3.2 0 0 1-1.2 1.43 3.3 3.3 0 0 1-4.8-1.42 5.06 5.06 0 0 1-.44-2.12v-.62a5.21 5.21 0 0 1 .43-2.17 3.16 3.16 0 0 1 3-1.95 3.31 3.31 0 0 1 1.81.5 3.19 3.19 0 0 1 1.2 1.44 5.3 5.3 0 0 1 .42 2.19zm-1.12-.55a3.83 3.83 0 0 0-.61-2.33 2 2 0 0 0-1.71-.81 2 2 0 0 0-1.68.81 3.75 3.75 0 0 0-.63 2.25v.63a3.83 3.83 0 0 0 .62 2.31 2.17 2.17 0 0 0 3.39 0 3.81 3.81 0 0 0 .62-2.28zm9.98 4.55h-1.13l-4.29-6.57v6.57H55.7v-8.53h1.13l4.31 6.6v-6.6h1.12zm3.73-1h4v1h-5.17v-8.53h1.13zm7.13 1H72v-8.53h1.13zm9.22 0h-1.13l-4.29-6.57v6.57h-1.13v-8.53h1.13l4.31 6.6v-6.6h1.12zm7.42-4h-3.7v3h4.34v1h-5.42v-8.53h5.36v.92H86.1v2.75h3.7zm8.64.16a5.29 5.29 0 0 1-2.11-1 2 2 0 0 1-.66-1.5 2.06 2.06 0 0 1 .81-1.67 3.2 3.2 0 0 1 2.09-.66 3.5 3.5 0 0 1 1.57.34 2.58 2.58 0 0 1 1.07.94 2.4 2.4 0 0 1 .38 1.31h-1.13a1.56 1.56 0 0 0-.49-1.22 2 2 0 0 0-1.39-.44 2 2 0 0 0-1.3.37 1.22 1.22 0 0 0-.47 1 1.1 1.1 0 0 0 .44.88 4.34 4.34 0 0 0 1.51.66 7 7 0 0 1 1.66.66 2.53 2.53 0 0 1 .89.84 2.15 2.15 0 0 1 .29 1.13 2 2 0 0 1-.81 1.66 3.45 3.45 0 0 1-2.16.62 4 4 0 0 1-1.64-.34 2.76 2.76 0 0 1-1.17-.92 2.25 2.25 0 0 1-.41-1.33h1.13a1.47 1.47 0 0 0 .57 1.22 2.41 2.41 0 0 0 1.53.45 2.21 2.21 0 0 0 1.37-.36 1.18 1.18 0 0 0 .47-1 1.16 1.16 0 0 0-.44-1 5.07 5.07 0 0 0-1.6-.64zm11.14-3.81h-2.74v7.65h-1.12v-7.61h-2.74v-.92h6.6zm8.26 3.65a5.28 5.28 0 0 1-.42 2.19 3.2 3.2 0 0 1-1.2 1.43 3.3 3.3 0 0 1-4.8-1.42 5.06 5.06 0 0 1-.44-2.12v-.62a5.21 5.21 0 0 1 .43-2.17 3.16 3.16 0 0 1 3-1.95 3.31 3.31 0 0 1 1.81.5 3.19 3.19 0 0 1 1.2 1.44 5.3 5.3 0 0 1 .42 2.19zm-1.12-.55a3.83 3.83 0 0 0-.61-2.33 2 2 0 0 0-1.71-.81 2 2 0 0 0-1.68.81 3.75 3.75 0 0 0-.63 2.25v.63a3.83 3.83 0 0 0 .62 2.31 2.17 2.17 0 0 0 3.39 0 3.81 3.81 0 0 0 .62-2.28zm6.54 1.06h-2v3.49h-1.13v-8.53h2.82a3.34 3.34 0 0 1 2.22.66 2.36 2.36 0 0 1 .78 1.91 2.3 2.3 0 0 1-.43 1.39 2.57 2.57 0 0 1-1.2.88l2 3.62v.07h-1.21zm-2-.92h1.73a2 2 0 0 0 1.33-.43 1.47 1.47 0 0 0 .5-1.16 1.55 1.55 0 0 0-.47-1.21 2 2 0 0 0-1.36-.43h-1.72zm11.68.41h-3.7v3h4.29v1h-5.42v-8.53h5.33v.92h-4.2v2.75h3.7z" fill="#3f3d3d"/><path fill="#aaa" d="M140.37 36.18h38v1h-38zm-138.88 0h38v1h-38zm132.31 5.19h.19v.19h-.19z"/></svg>