<svg data-name="Layer 1" xmlns="http://www.w3.org/2000/svg" viewBox="0 0 279 279"><title>new-collection</title><path d="M279 278a1 1 0 0 1-1 1H1a1 1 0 0 1-1-1V1a1 1 0 0 1 1-1h277a1 1 0 0 1 1 1zM2 276a1 1 0 0 0 1 1h273a1 1 0 0 0 1-1V3a1 1 0 0 0-1-1H3a1 1 0 0 0-1 1z" fill="#fff"/><path d="M269.35 267.67a1 1 0 0 1-1 1H10.66a1 1 0 0 1-1-1V10a1 1 0 0 1 1-1h257.69a1 1 0 0 1 1 1zm-258.67-1a1 1 0 0 0 1 1h255.67a1 1 0 0 0 1-1V11a1 1 0 0 0-1-1H11.66a1 1 0 0 0-1 1z" fill="#fff"/><path d="M101.14 106.84H91.08l-14.87-26.1v26.1h-10.1V64.89h10.11l14.84 26.1v-26.1h10.08zm44.21-17.81h-15.9v10h18.78v7.78h-28.88V64.89h29v7.81h-18.91v8.84h15.91zm51.29 2.14l4.81-26.3h10l-8.9 41.95h-10.46l-5.62-23.91-5.5 23.91h-10.46l-8.93-41.95h10.05l4.82 26.3 5.76-26.3h8.58zM55.01 183.65a9.06 9.06 0 0 1-3 6.5 10.71 10.71 0 0 1-7.25 2.37 9.63 9.63 0 0 1-7.74-3.31q-2.82-3.31-2.82-9.1v-1.56a15.34 15.34 0 0 1 1.3-6.5 9.75 9.75 0 0 1 3.72-4.32 11.62 11.62 0 0 1 12.75.87 9.73 9.73 0 0 1 3.13 6.66h-5.27a5.35 5.35 0 0 0-1.48-3.59 5.11 5.11 0 0 0-3.61-1.12 4.48 4.48 0 0 0-3.95 1.89q-1.31 1.89-1.34 5.86v1.93q0 4.15 1.26 6.06a4.4 4.4 0 0 0 4 1.92 5.21 5.21 0 0 0 3.65-1.12 5 5 0 0 0 1.38-3.45zm24.48-3.7a15.45 15.45 0 0 1-1.34 6.63 10.06 10.06 0 0 1-3.82 4.39 11.3 11.3 0 0 1-11.38 0 10.16 10.16 0 0 1-3.87-4.37 15 15 0 0 1-1.39-6.53v-1.27a15.37 15.37 0 0 1 1.36-6.65 10.14 10.14 0 0 1 3.85-4.41 11.28 11.28 0 0 1 11.37 0 10.14 10.14 0 0 1 3.85 4.41 15.33 15.33 0 0 1 1.36 6.64zm-5.34-1.16a10.77 10.77 0 0 0-1.44-6.12 5.09 5.09 0 0 0-8.21 0 10.65 10.65 0 0 0-1.46 6.06v1.25a10.91 10.91 0 0 0 1.44 6.08 5 5 0 0 0 8.23.08 10.84 10.84 0 0 0 1.44-6.07zm14.45 9.14h11.2v4.24H83.35v-25.59h5.27zm19.49 0h11.2v4.24h-16.47v-25.59h5.27zm29.62-6.85h-10.12v6.86h11.88v4.23h-17.12v-25.59h17.12v4.27h-11.88v6.1h10.13zm24.95 2.57a9.06 9.06 0 0 1-3 6.5 10.71 10.71 0 0 1-7.25 2.37 9.63 9.63 0 0 1-7.74-3.31q-2.82-3.31-2.82-9.1v-1.56a15.34 15.34 0 0 1 1.3-6.5 9.75 9.75 0 0 1 3.72-4.32 11.62 11.62 0 0 1 12.75.87 9.73 9.73 0 0 1 3.13 6.66h-5.27a5.35 5.35 0 0 0-1.38-3.59 5.11 5.11 0 0 0-3.61-1.12 4.48 4.48 0 0 0-3.95 1.89q-1.31 1.89-1.34 5.86v1.93q0 4.15 1.26 6.06a4.4 4.4 0 0 0 4 1.92 5.21 5.21 0 0 0 3.65-1.12 5 5 0 0 0 1.38-3.45zm22.22-12.8h-7.84v21.32h-5.27v-21.32h-7.73v-4.27h20.85zm8.61 21.32h-5.27v-25.59h5.27zm25.86-12.22a15.45 15.45 0 0 1-1.34 6.63 10.06 10.06 0 0 1-3.82 4.39 11.3 11.3 0 0 1-11.38 0 10.16 10.16 0 0 1-3.87-4.37 15 15 0 0 1-1.39-6.53v-1.27a15.37 15.37 0 0 1 1.36-6.65 10.14 10.14 0 0 1 3.85-4.41 11.28 11.28 0 0 1 11.37 0 10.14 10.14 0 0 1 3.85 4.41 15.33 15.33 0 0 1 1.36 6.64zm-5.34-1.16a10.77 10.77 0 0 0-1.44-6.12 5.09 5.09 0 0 0-8.21 0 10.65 10.65 0 0 0-1.46 6.06v1.25a10.91 10.91 0 0 0 1.44 6.08 5 5 0 0 0 8.23.08 10.84 10.84 0 0 0 1.44-6.07zm30.03 13.38h-5.27l-10.27-16.84v16.84h-5.27v-25.59h5.27l10.28 16.88v-16.88h5.26z" fill="#fff"/></svg>