<svg id="Layer_1" data-name="Layer 1" xmlns="http://www.w3.org/2000/svg" viewBox="0 0 182.87 41.55"><title>logo</title><path d="M416.19,538.43a8.32,8.32,0,0,0,4.21,1.19c2.4,0,3.81-1.27,3.81-3.1s-1-2.67-3.43-3.62c-3-1.05-4.8-2.59-4.8-5.16,0-2.83,2.35-4.94,5.88-4.94a8.27,8.27,0,0,1,4,.89l-.65,1.92a7.24,7.24,0,0,0-3.46-.86c-2.48,0-3.43,1.48-3.43,2.73,0,1.7,1.11,2.54,3.62,3.51,3.08,1.19,4.64,2.67,4.64,5.34s-2.08,5.24-6.37,5.24a9.41,9.41,0,0,1-4.64-1.16Z" transform="translate(-415.6 -522.81)" style="fill:#3f3d3d"/><path d="M435.17,525.1h-5.53v-2h13.47v2h-5.56v16.2h-2.38Z" transform="translate(-415.6 -522.81)" style="fill:#3f3d3d"/><path d="M447.94,535.57l-1.89,5.72h-2.43l6.18-18.19h2.83l6.21,18.19h-2.51l-1.94-5.72Zm6-1.84-1.78-5.24c-.41-1.19-.67-2.27-.94-3.32h-.05c-.27,1.08-.57,2.19-.92,3.29l-1.78,5.26Z" transform="translate(-415.6 -522.81)" style="fill:#3f3d3d"/><path d="M463.41,523.35a24.44,24.44,0,0,1,4.51-.38c2.51,0,4.13.46,5.26,1.48a4.53,4.53,0,0,1,1.43,3.46,4.78,4.78,0,0,1-3.43,4.64v.08c1.4.49,2.24,1.78,2.67,3.67a29,29,0,0,0,1.4,5h-2.43a23.5,23.5,0,0,1-1.21-4.35c-.54-2.51-1.51-3.46-3.64-3.54h-2.21v7.88h-2.35Zm2.35,8.29h2.4c2.51,0,4.1-1.38,4.1-3.46,0-2.35-1.7-3.37-4.18-3.4a9.64,9.64,0,0,0-2.32.22Z" transform="translate(-415.6 -522.81)" style="fill:#3f3d3d"/><path d="M500.16,540.7a11.66,11.66,0,0,1-4.8.86c-5.13,0-9-3.24-9-9.2,0-5.7,3.86-9.56,9.5-9.56a9.75,9.75,0,0,1,4.32.81l-.57,1.92a8.56,8.56,0,0,0-3.67-.76c-4.26,0-7.1,2.73-7.1,7.5,0,4.45,2.56,7.31,7,7.31a9.4,9.4,0,0,0,3.83-.76Z" transform="translate(-415.6 -522.81)" style="fill:#3f3d3d"/><path d="M505,523.1h2.35v16.22h7.77v2H505Z" transform="translate(-415.6 -522.81)" style="fill:#3f3d3d"/><path d="M534.12,532c0,6.26-3.81,9.58-8.45,9.58-4.8,0-8.18-3.72-8.18-9.23,0-5.78,3.59-9.56,8.45-9.56S534.12,526.61,534.12,532Zm-14.12.3c0,3.89,2.11,7.37,5.8,7.37s5.83-3.43,5.83-7.56c0-3.62-1.89-7.4-5.8-7.4S520,528.31,520,532.31Z" transform="translate(-415.6 -522.81)" style="fill:#3f3d3d"/><path d="M541.85,525.1h-5.53v-2h13.47v2h-5.56v16.2h-2.37Z" transform="translate(-415.6 -522.81)" style="fill:#3f3d3d"/><path d="M556,523.1v7.61h8.8V523.1h2.38V541.3h-2.38v-8.53H556v8.53H553.7V523.1Z" transform="translate(-415.6 -522.81)" style="fill:#3f3d3d"/><path d="M582.62,532.77h-7.07v6.56h7.88v2H573.2V523.1H583v2h-7.48v5.75h7.07Z" transform="translate(-415.6 -522.81)" style="fill:#3f3d3d"/><path d="M588,538.43a8.31,8.31,0,0,0,4.21,1.19c2.4,0,3.81-1.27,3.81-3.1s-1-2.67-3.43-3.62c-3-1.05-4.8-2.59-4.8-5.16,0-2.83,2.35-4.94,5.88-4.94a8.26,8.26,0,0,1,4,.89l-.65,1.92a7.24,7.24,0,0,0-3.46-.86c-2.48,0-3.43,1.48-3.43,2.73,0,1.7,1.11,2.54,3.62,3.51,3.08,1.19,4.64,2.67,4.64,5.34s-2.08,5.24-6.37,5.24a9.4,9.4,0,0,1-4.64-1.16Z" transform="translate(-415.6 -522.81)" style="fill:#3f3d3d"/><path d="M469,560a5.28,5.28,0,0,1-.42,2.19,3.2,3.2,0,0,1-1.2,1.43,3.3,3.3,0,0,1-4.8-1.42,5.06,5.06,0,0,1-.44-2.12v-.62a5.21,5.21,0,0,1,.43-2.17,3.16,3.16,0,0,1,3-1.95,3.31,3.31,0,0,1,1.81.5,3.19,3.19,0,0,1,1.2,1.44,5.3,5.3,0,0,1,.42,2.19Zm-1.12-.55a3.83,3.83,0,0,0-.61-2.33,2,2,0,0,0-1.71-.81,2,2,0,0,0-1.68.81,3.75,3.75,0,0,0-.63,2.25V560a3.83,3.83,0,0,0,.62,2.31,2.17,2.17,0,0,0,3.39,0,3.81,3.81,0,0,0,.62-2.28Z" transform="translate(-415.6 -522.81)" style="fill:#3f3d3d"/><path d="M477.86,564h-1.13l-4.29-6.57V564H471.3v-8.53h1.13l4.31,6.6v-6.6h1.12Z" transform="translate(-415.6 -522.81)" style="fill:#3f3d3d"/><path d="M481.59,563h4V564h-5.17v-8.53h1.13Z" transform="translate(-415.6 -522.81)" style="fill:#3f3d3d"/><path d="M488.72,564H487.6v-8.53h1.13Z" transform="translate(-415.6 -522.81)" style="fill:#3f3d3d"/><path d="M497.94,564h-1.13l-4.29-6.57V564h-1.13v-8.53h1.13l4.31,6.6v-6.6h1.12Z" transform="translate(-415.6 -522.81)" style="fill:#3f3d3d"/><path d="M505.36,560h-3.7v3H506V564h-5.42v-8.53h5.36v.92h-4.24v2.75h3.7Z" transform="translate(-415.6 -522.81)" style="fill:#3f3d3d"/><path d="M514,560.16a5.29,5.29,0,0,1-2.11-1,2,2,0,0,1-.66-1.5,2.06,2.06,0,0,1,.81-1.67,3.2,3.2,0,0,1,2.09-.66,3.5,3.5,0,0,1,1.57.34,2.58,2.58,0,0,1,1.07.94,2.4,2.4,0,0,1,.38,1.31h-1.13a1.56,1.56,0,0,0-.49-1.22,2,2,0,0,0-1.39-.44,2,2,0,0,0-1.3.37,1.22,1.22,0,0,0-.47,1,1.1,1.1,0,0,0,.44.88,4.34,4.34,0,0,0,1.51.66,7,7,0,0,1,1.66.66,2.53,2.53,0,0,1,.89.84,2.15,2.15,0,0,1,.29,1.13,2,2,0,0,1-.81,1.66,3.45,3.45,0,0,1-2.16.62,4,4,0,0,1-1.64-.34,2.76,2.76,0,0,1-1.17-.92,2.25,2.25,0,0,1-.41-1.33h1.13a1.47,1.47,0,0,0,.57,1.22,2.41,2.41,0,0,0,1.53.45,2.21,2.21,0,0,0,1.37-.36,1.18,1.18,0,0,0,.47-1,1.16,1.16,0,0,0-.44-1A5.07,5.07,0,0,0,514,560.16Z" transform="translate(-415.6 -522.81)" style="fill:#3f3d3d"/><path d="M525.14,556.35H522.4V564h-1.12v-7.61h-2.74v-.92h6.6Z" transform="translate(-415.6 -522.81)" style="fill:#3f3d3d"/><path d="M533.4,560a5.28,5.28,0,0,1-.42,2.19,3.2,3.2,0,0,1-1.2,1.43,3.3,3.3,0,0,1-4.8-1.42,5.06,5.06,0,0,1-.44-2.12v-.62a5.21,5.21,0,0,1,.43-2.17,3.16,3.16,0,0,1,3-1.95,3.31,3.31,0,0,1,1.81.5,3.19,3.19,0,0,1,1.2,1.44,5.3,5.3,0,0,1,.42,2.19Zm-1.12-.55a3.83,3.83,0,0,0-.61-2.33,2,2,0,0,0-1.71-.81,2,2,0,0,0-1.68.81,3.75,3.75,0,0,0-.63,2.25V560a3.83,3.83,0,0,0,.62,2.31,2.17,2.17,0,0,0,3.39,0,3.81,3.81,0,0,0,.62-2.28Z" transform="translate(-415.6 -522.81)" style="fill:#3f3d3d"/><path d="M538.82,560.51h-2V564h-1.13v-8.53h2.82a3.34,3.34,0,0,1,2.22.66,2.36,2.36,0,0,1,.78,1.91,2.3,2.3,0,0,1-.43,1.39,2.57,2.57,0,0,1-1.2.88l2,3.62V564h-1.21Zm-2-.92h1.73a2,2,0,0,0,1.33-.43,1.47,1.47,0,0,0,.5-1.16,1.55,1.55,0,0,0-.47-1.21,2,2,0,0,0-1.36-.43h-1.72Z" transform="translate(-415.6 -522.81)" style="fill:#3f3d3d"/><path d="M548.5,560h-3.7v3h4.29V564h-5.42v-8.53H549v.92H544.8v2.75h3.7Z" transform="translate(-415.6 -522.81)" style="fill:#3f3d3d"/><rect x="140.37" y="36.18" width="38" height="1" style="fill:#aaa"/><rect x="1.49" y="36.18" width="38" height="1" style="fill:#aaa"/><rect x="133.8" y="41.37" width="0.19" height="0.19" style="fill:#aaa"/></svg>