<svg id="Layer_1" data-name="Layer 1" xmlns="http://www.w3.org/2000/svg" viewBox="0 0 279 279"><title>new-collection</title><path d="M634.65,629.83a1,1,0,0,1-1,1h-277a1,1,0,0,1-1-1v-277a1,1,0,0,1,1-1h277a1,1,0,0,1,1,1Zm-277-2a1,1,0,0,0,1,1h273a1,1,0,0,0,1-1v-273a1,1,0,0,0-1-1h-273a1,1,0,0,0-1,1Z" transform="translate(-355.65 -351.83)" style="fill:#fff"/><path d="M625,619.5a1,1,0,0,1-1,1H366.31a1,1,0,0,1-1-1V361.83a1,1,0,0,1,1-1H624a1,1,0,0,1,1,1Zm-258.67-1a1,1,0,0,0,1,1H623a1,1,0,0,0,1-1V362.83a1,1,0,0,0-1-1H367.31a1,1,0,0,0-1,1Z" transform="translate(-355.65 -351.83)" style="fill:#fff"/><path d="M456.79,458.67H446.73l-14.87-26.1v26.1H421.76V416.72h10.11l14.84,26.1v-26.1h10.08Z" transform="translate(-355.65 -351.83)" style="fill:#fff"/><path d="M501,440.86h-15.9v10h18.78v7.78H475V416.72h29v7.81H485.09v8.84H501Z" transform="translate(-355.65 -351.83)" style="fill:#fff"/><path d="M552.29,443l4.81-26.3h10l-8.9,41.95H547.74l-5.62-23.91-5.5,23.91H526.16l-8.93-41.95h10.05L532.1,443l5.76-26.3h8.58Z" transform="translate(-355.65 -351.83)" style="fill:#fff"/><path d="M410.66,535.48a9.06,9.06,0,0,1-3,6.5,10.71,10.71,0,0,1-7.25,2.37,9.63,9.63,0,0,1-7.74-3.31q-2.82-3.31-2.82-9.1v-1.56a15.34,15.34,0,0,1,1.3-6.5,9.75,9.75,0,0,1,3.72-4.32,11.62,11.62,0,0,1,12.75.87,9.73,9.73,0,0,1,3.13,6.66h-5.27A5.35,5.35,0,0,0,404,523.5a5.11,5.11,0,0,0-3.61-1.12,4.48,4.48,0,0,0-3.95,1.89q-1.31,1.89-1.34,5.86v1.93q0,4.15,1.26,6.06a4.4,4.4,0,0,0,4,1.92,5.21,5.21,0,0,0,3.65-1.12,5,5,0,0,0,1.38-3.45Z" transform="translate(-355.65 -351.83)" style="fill:#fff"/><path d="M435.14,531.78a15.45,15.45,0,0,1-1.34,6.63,10.06,10.06,0,0,1-3.82,4.39,11.3,11.3,0,0,1-11.38,0,10.16,10.16,0,0,1-3.87-4.37,15,15,0,0,1-1.39-6.53v-1.27a15.37,15.37,0,0,1,1.36-6.65,10.14,10.14,0,0,1,3.85-4.41,11.28,11.28,0,0,1,11.37,0,10.14,10.14,0,0,1,3.85,4.41,15.33,15.33,0,0,1,1.36,6.64Zm-5.34-1.16a10.77,10.77,0,0,0-1.44-6.12,5.09,5.09,0,0,0-8.21,0,10.65,10.65,0,0,0-1.46,6.06v1.25a10.91,10.91,0,0,0,1.44,6.08,5,5,0,0,0,8.23.08,10.84,10.84,0,0,0,1.44-6.07Z" transform="translate(-355.65 -351.83)" style="fill:#fff"/><path d="M444.25,539.76h11.2V544H439V518.41h5.27Z" transform="translate(-355.65 -351.83)" style="fill:#fff"/><path d="M463.74,539.76h11.2V544H458.47V518.41h5.27Z" transform="translate(-355.65 -351.83)" style="fill:#fff"/><path d="M493.36,532.91H483.24v6.86h11.88V544H478V518.41h17.12v4.27H483.24v6.1h10.13Z" transform="translate(-355.65 -351.83)" style="fill:#fff"/><path d="M518.31,535.48a9.06,9.06,0,0,1-3,6.5,10.71,10.71,0,0,1-7.25,2.37,9.63,9.63,0,0,1-7.74-3.31q-2.82-3.31-2.82-9.1v-1.56a15.34,15.34,0,0,1,1.3-6.5,9.75,9.75,0,0,1,3.72-4.32,11.62,11.62,0,0,1,12.75.87,9.73,9.73,0,0,1,3.13,6.66h-5.27a5.35,5.35,0,0,0-1.38-3.59,5.11,5.11,0,0,0-3.61-1.12,4.48,4.48,0,0,0-3.95,1.89q-1.31,1.89-1.34,5.86v1.93q0,4.15,1.26,6.06a4.4,4.4,0,0,0,4,1.92,5.21,5.21,0,0,0,3.65-1.12,5,5,0,0,0,1.38-3.45Z" transform="translate(-355.65 -351.83)" style="fill:#fff"/><path d="M540.53,522.68h-7.84V544h-5.27V522.68h-7.73v-4.27h20.85Z" transform="translate(-355.65 -351.83)" style="fill:#fff"/><path d="M549.14,544h-5.27V518.41h5.27Z" transform="translate(-355.65 -351.83)" style="fill:#fff"/><path d="M575,531.78a15.45,15.45,0,0,1-1.34,6.63,10.06,10.06,0,0,1-3.82,4.39,11.3,11.3,0,0,1-11.38,0,10.16,10.16,0,0,1-3.87-4.37,15,15,0,0,1-1.39-6.53v-1.27a15.37,15.37,0,0,1,1.36-6.65,10.14,10.14,0,0,1,3.85-4.41,11.28,11.28,0,0,1,11.37,0,10.14,10.14,0,0,1,3.85,4.41,15.33,15.33,0,0,1,1.36,6.64Zm-5.34-1.16a10.77,10.77,0,0,0-1.44-6.12,5.09,5.09,0,0,0-8.21,0,10.65,10.65,0,0,0-1.46,6.06v1.25a10.91,10.91,0,0,0,1.44,6.08,5,5,0,0,0,8.23.08,10.84,10.84,0,0,0,1.44-6.07Z" transform="translate(-355.65 -351.83)" style="fill:#fff"/><path d="M599.69,544h-5.27l-10.27-16.84V544h-5.27V518.41h5.27l10.28,16.88V518.41h5.26Z" transform="translate(-355.65 -351.83)" style="fill:#fff"/></svg>