<svg id="Layer_1" data-name="Layer 1" xmlns="http://www.w3.org/2000/svg" width="279" height="279" viewBox="0 0 279 279"><title>sale</title><path d="M648.42,620.17a1,1,0,0,1-1,1h-277a1,1,0,0,1-1-1v-277a1,1,0,0,1,1-1h277a1,1,0,0,1,1,1Zm-277-2a1,1,0,0,0,1,1h273a1,1,0,0,0,1-1v-273a1,1,0,0,0-1-1h-273a1,1,0,0,0-1,1Z" transform="translate(-369.42 -342.17)" style="fill:#fff"/><path d="M638.75,609.83a1,1,0,0,1-1,1H380.08a1,1,0,0,1-1-1V352.17a1,1,0,0,1,1-1H637.75a1,1,0,0,1,1,1Zm-258.67-1a1,1,0,0,0,1,1H636.75a1,1,0,0,0,1-1V353.17a1,1,0,0,0-1-1H381.08a1,1,0,0,0-1,1Z" transform="translate(-369.42 -342.17)" style="fill:#fff"/><path d="M453.35,382.11,457,392.43l3.63-10.31h3.85v14.22h-2.94v-3.89l.29-6.71L458,396.33h-2l-3.83-10.59.29,6.7v3.89h-2.93V382.11Z" transform="translate(-369.42 -342.17)" style="fill:#fff"/><path d="M470.16,396.33h-2.93V382.11h2.93Z" transform="translate(-369.42 -342.17)" style="fill:#fff"/><path d="M472.87,396.33V382.11h4.38a6.65,6.65,0,0,1,3.35.84,5.89,5.89,0,0,1,2.31,2.4,7.41,7.41,0,0,1,.83,3.54v.65a7.43,7.43,0,0,1-.82,3.53,5.84,5.84,0,0,1-2.3,2.39,6.69,6.69,0,0,1-3.35.86Zm2.93-11.85V394h1.42a3.18,3.18,0,0,0,2.63-1.12,5.07,5.07,0,0,0,.93-3.21v-.75a5.16,5.16,0,0,0-.9-3.29,3.17,3.17,0,0,0-2.63-1.12Z" transform="translate(-369.42 -342.17)" style="fill:#fff"/><path d="M491.17,391.38h-5.5v-2.28h5.5Z" transform="translate(-369.42 -342.17)" style="fill:#fff"/><path d="M501,392.6a1.5,1.5,0,0,0-.59-1.27,7.68,7.68,0,0,0-2.11-.94,15,15,0,0,1-2.41-1,3.94,3.94,0,0,1-2.42-3.53,3.44,3.44,0,0,1,.65-2.06,4.23,4.23,0,0,1,1.87-1.41,7,7,0,0,1,2.73-.51,6.39,6.39,0,0,1,2.71.55,4.32,4.32,0,0,1,1.85,1.56,4.08,4.08,0,0,1,.66,2.29H501a1.92,1.92,0,0,0-.62-1.52,2.53,2.53,0,0,0-1.73-.54,2.7,2.7,0,0,0-1.67.45,1.43,1.43,0,0,0-.6,1.2,1.37,1.37,0,0,0,.7,1.16,7.89,7.89,0,0,0,2.06.88,8.88,8.88,0,0,1,3.64,1.87,3.71,3.71,0,0,1,1.14,2.77,3.42,3.42,0,0,1-1.4,2.9,6.11,6.11,0,0,1-3.76,1,7.26,7.26,0,0,1-3-.6,4.73,4.73,0,0,1-2.06-1.65,4.22,4.22,0,0,1-.71-2.42H496q0,2.35,2.81,2.35a2.74,2.74,0,0,0,1.63-.42A1.38,1.38,0,0,0,501,392.6Z" transform="translate(-369.42 -342.17)" style="fill:#fff"/><path d="M514.47,390.17h-5.63V394h6.6v2.35h-9.53V382.11h9.51v2.37h-6.58v3.39h5.63Z" transform="translate(-369.42 -342.17)" style="fill:#fff"/><path d="M525.2,393.4h-5.14l-1,2.93H516l5.29-14.22H524l5.32,14.22h-3.12ZM520.85,391h3.55l-1.79-5.32Z" transform="translate(-369.42 -342.17)" style="fill:#fff"/><path d="M538,392.6a1.5,1.5,0,0,0-.59-1.27,7.68,7.68,0,0,0-2.11-.94,15,15,0,0,1-2.41-1,3.94,3.94,0,0,1-2.42-3.53,3.44,3.44,0,0,1,.65-2.06,4.23,4.23,0,0,1,1.87-1.41,7,7,0,0,1,2.73-.51,6.39,6.39,0,0,1,2.71.55,4.32,4.32,0,0,1,1.85,1.56,4.08,4.08,0,0,1,.66,2.29H538a1.92,1.92,0,0,0-.62-1.52,2.53,2.53,0,0,0-1.73-.54,2.7,2.7,0,0,0-1.67.45,1.43,1.43,0,0,0-.6,1.2,1.37,1.37,0,0,0,.7,1.16,7.89,7.89,0,0,0,2.06.88,8.88,8.88,0,0,1,3.64,1.87,3.71,3.71,0,0,1,1.14,2.77,3.42,3.42,0,0,1-1.4,2.9,6.11,6.11,0,0,1-3.76,1,7.26,7.26,0,0,1-3-.6,4.73,4.73,0,0,1-2.06-1.65,4.22,4.22,0,0,1-.71-2.42H533q0,2.35,2.81,2.35a2.74,2.74,0,0,0,1.63-.42A1.38,1.38,0,0,0,538,392.6Z" transform="translate(-369.42 -342.17)" style="fill:#fff"/><path d="M554.6,389.55a8.58,8.58,0,0,1-.74,3.68,5.59,5.59,0,0,1-2.12,2.44,6.28,6.28,0,0,1-6.32,0,5.64,5.64,0,0,1-2.15-2.43,8.34,8.34,0,0,1-.77-3.63v-.7a8.53,8.53,0,0,1,.76-3.7,5.64,5.64,0,0,1,2.14-2.45,6.27,6.27,0,0,1,6.32,0,5.64,5.64,0,0,1,2.14,2.45,8.51,8.51,0,0,1,.76,3.69Zm-3-.64a6,6,0,0,0-.8-3.4,2.83,2.83,0,0,0-4.56,0,5.92,5.92,0,0,0-.81,3.36v.69a6.06,6.06,0,0,0,.8,3.38,2.8,2.8,0,0,0,4.57,0,6,6,0,0,0,.8-3.37Z" transform="translate(-369.42 -342.17)" style="fill:#fff"/><path d="M568.29,396.33h-2.93l-5.7-9.36v9.36h-2.93V382.11h2.93l5.71,9.38v-9.37h2.92Z" transform="translate(-369.42 -342.17)" style="fill:#fff"/><path d="M462.67,467.18a4.16,4.16,0,0,0-1.57-3.46,19.53,19.53,0,0,0-5.52-2.56,52.93,52.93,0,0,1-6.45-2.56q-8.15-4-8.15-11a9.87,9.87,0,0,1,2-6.15,13.14,13.14,0,0,1,5.75-4.15,22.37,22.37,0,0,1,8.35-1.48,19.57,19.57,0,0,1,8.11,1.61,12.83,12.83,0,0,1,5.57,4.59,12,12,0,0,1,2,6.81H462.69a5.07,5.07,0,0,0-1.57-4,6.12,6.12,0,0,0-4.25-1.41,6.9,6.9,0,0,0-4.28,1.2,3.52,3.52,0,0,0,.16,6,21.76,21.76,0,0,0,6.08,2.71,37.32,37.32,0,0,1,7.14,3q6.8,3.92,6.8,10.8a10.24,10.24,0,0,1-4.15,8.64q-4.15,3.14-11.38,3.14a22.57,22.57,0,0,1-9.23-1.83,13.91,13.91,0,0,1-6.22-5,13.06,13.06,0,0,1-2.09-7.33h10.14q0,3.37,1.74,5t5.66,1.6a6.51,6.51,0,0,0,4-1.08A3.57,3.57,0,0,0,462.67,467.18Z" transform="translate(-369.42 -342.17)"/><path d="M501.79,470.5H487.93l-2.42,7.84h-10.8l15.38-41.95h9.51l15.5,41.95H504.24Zm-11.44-7.81h9l-4.52-14.55Z" transform="translate(-369.42 -342.17)"/><path d="M528.26,470.56h17.6v7.78H518.15V436.39h10.11Z" transform="translate(-369.42 -342.17)"/><path d="M576.14,460.53h-15.9v10H579v7.78h-28.9V436.39h29v7.81H560.24V453h15.9Z" transform="translate(-369.42 -342.17)"/><path d="M492.76,512.12v9.37a4.79,4.79,0,0,1-1.46,3.69,5.63,5.63,0,0,1-4,1.36,5.69,5.69,0,0,1-4-1.32,4.71,4.71,0,0,1-1.49-3.62v-9.47h2.93v9.38a2.71,2.71,0,0,0,.67,2,2.57,2.57,0,0,0,1.85.64q2.47,0,2.51-2.6v-9.46Z" transform="translate(-369.42 -342.17)" style="fill:#fff"/><path d="M498.1,521.32v5h-2.93V512.12h5.55a6.42,6.42,0,0,1,2.82.59,4.32,4.32,0,0,1,1.87,1.67,4.64,4.64,0,0,1,.65,2.46,4.08,4.08,0,0,1-1.43,3.3,6,6,0,0,1-4,1.21Zm0-2.37h2.62a2.58,2.58,0,0,0,1.77-.55,2,2,0,0,0,.61-1.56,2.35,2.35,0,0,0-.62-1.69,2.3,2.3,0,0,0-1.7-.66H498.1Z" transform="translate(-369.42 -342.17)" style="fill:#fff"/><path d="M523.16,514.49h-4.36v11.85h-2.93V514.49h-4.3v-2.37h11.58Z" transform="translate(-369.42 -342.17)" style="fill:#fff"/><path d="M536.24,519.55a8.58,8.58,0,0,1-.74,3.68,5.6,5.6,0,0,1-2.12,2.44,6.28,6.28,0,0,1-6.32,0,5.64,5.64,0,0,1-2.15-2.43,8.34,8.34,0,0,1-.77-3.63v-.7a8.53,8.53,0,0,1,.76-3.7,5.64,5.64,0,0,1,2.14-2.45,6.27,6.27,0,0,1,6.32,0,5.64,5.64,0,0,1,2.14,2.45,8.51,8.51,0,0,1,.76,3.69Zm-3-.64a6,6,0,0,0-.8-3.4,2.83,2.83,0,0,0-4.56,0,5.92,5.92,0,0,0-.81,3.36v.69a6.05,6.05,0,0,0,.8,3.38,2.8,2.8,0,0,0,4.57,0,6,6,0,0,0,.8-3.37Z" transform="translate(-369.42 -342.17)" style="fill:#fff"/><path d="M444.42,564.48l1.31-11.56h12.75v3.77h-9l-.56,4.89a7.16,7.16,0,0,1,3.42-.86,6.56,6.56,0,0,1,5.09,2,8.06,8.06,0,0,1,1.84,5.64,8.25,8.25,0,0,1-.93,3.95,6.56,6.56,0,0,1-2.66,2.7,8.32,8.32,0,0,1-4.09,1,8.84,8.84,0,0,1-3.83-.84,6.77,6.77,0,0,1-2.79-2.35,6.4,6.4,0,0,1-1.09-3.45h4.47a3.33,3.33,0,0,0,1,2.21,3.14,3.14,0,0,0,2.23.79,2.78,2.78,0,0,0,2.36-1.1,5.11,5.11,0,0,0,.83-3.12,4.22,4.22,0,0,0-1-3,3.5,3.5,0,0,0-2.7-1,3.91,3.91,0,0,0-2.61.84l-.44.41Z" transform="translate(-369.42 -342.17)"/><path d="M477.42,566.26q0,4.72-2,7.22a7.81,7.81,0,0,1-11.41,0q-2-2.45-2-7v-4.19q0-4.77,2-7.23a7.82,7.82,0,0,1,11.38,0q2,2.45,2,7Zm-4.52-4.6a8.33,8.33,0,0,0-.77-4.12,2.61,2.61,0,0,0-2.41-1.29,2.57,2.57,0,0,0-2.35,1.23,7.79,7.79,0,0,0-.8,3.84v5.54a8.74,8.74,0,0,0,.76,4.14,2.58,2.58,0,0,0,2.43,1.35,2.54,2.54,0,0,0,2.39-1.3,8.55,8.55,0,0,0,.77-4Z" transform="translate(-369.42 -342.17)"/><path d="M488.37,557.29a4.5,4.5,0,0,1,1.36-3.4,4.93,4.93,0,0,1,3.56-1.3,5,5,0,0,1,3.59,1.29,4.58,4.58,0,0,1,1.36,3.49v1.13a4.44,4.44,0,0,1-1.36,3.39,5.61,5.61,0,0,1-7.15,0,4.55,4.55,0,0,1-1.37-3.48Zm3,1.2a2.1,2.1,0,0,0,.54,1.51,1.85,1.85,0,0,0,1.41.57,1.77,1.77,0,0,0,1.39-.58,2.24,2.24,0,0,0,.52-1.55v-1.16a2.19,2.19,0,0,0-.52-1.52,2,2,0,0,0-2.81,0,2.24,2.24,0,0,0-.53,1.59ZM494.21,574l-2.2-1.19L503.12,555l2.2,1.19Zm5-3.87a4.44,4.44,0,0,1,1.38-3.4,5,5,0,0,1,3.56-1.29,5.05,5.05,0,0,1,3.59,1.27,4.56,4.56,0,0,1,1.37,3.51v1.13a4.47,4.47,0,0,1-1.34,3.38,5,5,0,0,1-3.58,1.29,5,5,0,0,1-3.61-1.3,4.53,4.53,0,0,1-1.36-3.44Zm3,1.22a2.09,2.09,0,0,0,.56,1.47,1.83,1.83,0,0,0,1.41.61q1.91,0,1.91-2.11v-1.19a2.13,2.13,0,0,0-.53-1.51,2,2,0,0,0-2.81,0,2.19,2.19,0,0,0-.53,1.55Z" transform="translate(-369.42 -342.17)"/><path d="M539.2,564.81A13.74,13.74,0,0,1,538,570.7a8.94,8.94,0,0,1-3.4,3.91,10,10,0,0,1-10.12,0,9,9,0,0,1-3.44-3.88,13.33,13.33,0,0,1-1.23-5.8v-1.12a13.66,13.66,0,0,1,1.21-5.91,9,9,0,0,1,3.42-3.92,10,10,0,0,1,10.11,0,9,9,0,0,1,3.42,3.92,13.63,13.63,0,0,1,1.21,5.9Zm-4.75-1a9.58,9.58,0,0,0-1.28-5.44,4.53,4.53,0,0,0-7.3,0,9.46,9.46,0,0,0-1.3,5.38v1.11a9.69,9.69,0,0,0,1.28,5.41,4.49,4.49,0,0,0,7.31.07,9.64,9.64,0,0,0,1.28-5.4Z" transform="translate(-369.42 -342.17)"/><path d="M556.29,566.37h-9v9.3H542.6V552.92h14.81v3.8H547.29v5.88h9Z" transform="translate(-369.42 -342.17)"/><path d="M573.82,566.37h-9v9.3h-4.69V552.92h14.81v3.8H564.82v5.88h9Z" transform="translate(-369.42 -342.17)"/><rect x="62.34" y="172.33" width="33" height="1" style="fill:#fff"/><rect x="182.06" y="172.33" width="33" height="1" style="fill:#fff"/><rect x="35.34" y="179.5" width="60" height="1" style="fill:#fff"/><rect x="182.06" y="179.5" width="60" height="1" style="fill:#fff"/></svg>