<?xml version="1.0" encoding="iso-8859-1"?>
<!-- Generator: Adobe Illustrator 19.0.0, SVG Export Plug-In . SVG Version: 6.00 Build 0)  -->
<svg version="1.1" id="Capa_1" xmlns="http://www.w3.org/2000/svg" xmlns:xlink="http://www.w3.org/1999/xlink" x="0px" y="0px"
	 viewBox="0 0 480 480" style="enable-background:new 0 0 480 480;" xml:space="preserve">
<path style="fill:#EAEAEA;" d="M440,8H40C22.328,8,8,22.328,8,40v304h464V40C472,22.328,457.672,8,440,8z M296,272
	c0,8.84-7.16,16-16,16h-80c-8.84,0-16-7.16-16-16v-16c0-8.84,7.16-16,16-16h80c8.84,0,16,7.16,16,16V272z M168,184v24h-32V88
	c0-4.416,3.584-8,8-8h16c4.416,0,8,3.584,8,8v32v32h48h104v-16c0-4.416,3.584-8,8-8h16c4.416,0,8,3.584,8,8v72h-32v-24H168z"/>
<path style="fill:#A9CB73;" d="M8,360c0,17.672,14.328,32,32,32h160h80h160c17.672,0,32-14.328,32-32v-16H8V360z"/>
<path style="fill:#F4CD57;" d="M352,208v-72c0-4.416-3.584-8-8-8h-16c-4.416,0-8,3.584-8,8v16H216h-48v-32V88c0-4.416-3.584-8-8-8
	h-16c-4.416,0-8,3.584-8,8v120h32v-24h152v24H352z"/>
<path style="fill:#A9CB73;" d="M152,440c-17.672,0-32,14.328-32,32h240c0-17.672-14.328-32-32-32h-48h-80H152z"/>
<rect x="200" y="392" style="fill:#EAEAEA;" width="80" height="48"/>
<path style="fill:#A9CB73;" d="M280,240h-80c-8.84,0-16,7.16-16,16v16c0,8.84,7.16,16,16,16h80c8.84,0,16-7.16,16-16v-16
	C296,247.16,288.84,240,280,240z"/>
<g>
	<path style="fill:#2D2D2D;" d="M440,0H40C17.944,0,0,17.944,0,40v304v16c0,22.056,17.944,40,40,40h152v32h-40
		c-22.056,0-40,17.944-40,40c0,4.416,3.584,8,8,8h240c4.416,0,8-3.584,8-8c0-22.056-17.944-40-40-40h-40v-32h152
		c22.056,0,40-17.944,40-40v-16V40C480,17.944,462.056,0,440,0z M16,40c0-13.232,10.768-24,24-24h400c13.232,0,24,10.768,24,24v296
		H16V40z M350.632,464H129.368c3.304-9.312,12.2-16,22.632-16h48h80h48C338.432,448,347.328,454.688,350.632,464z M272,432h-64v-32
		h64V432z M464,360c0,13.232-10.768,24-24,24H280h-80H40c-13.232,0-24-10.768-24-24v-8h448V360z"/>
	<path style="fill:#2D2D2D;" d="M360,208v-72c0-8.824-7.176-16-16-16h-16c-8.824,0-16,7.176-16,16v8h-88v-16c0-8.824-7.176-16-16-16
		h-32V88c0-8.824-7.176-16-16-16h-16c-8.824,0-16,7.176-16,16v120c0,4.416,3.584,8,8,8h32c4.416,0,8-3.584,8-8v-16h136v16
		c0,4.416,3.584,8,8,8h32C356.416,216,360,212.416,360,208z M208,128v16h-32v-16H208z M344,200h-16v-16c0-4.416-3.584-8-8-8H168
		c-4.416,0-8,3.584-8,8v16h-16V88h16v32v32c0,4.416,3.584,8,8,8h48h104c4.416,0,8-3.584,8-8v-16h16V200z"/>
	<path style="fill:#2D2D2D;" d="M280,232h-80c-13.232,0-24,10.768-24,24v16c0,13.232,10.768,24,24,24h80c13.232,0,24-10.768,24-24
		v-16C304,242.768,293.232,232,280,232z M288,272c0,4.408-3.592,8-8,8h-80c-4.408,0-8-3.592-8-8v-16c0-4.408,3.592-8,8-8h80
		c4.408,0,8,3.592,8,8V272z"/>
	<path style="fill:#2D2D2D;" d="M397.656,261.656c2.04-2.04,2.824-5.016,2.056-7.792s-2.976-4.928-5.768-5.624l-64-16
		c-2.728-0.68-5.608,0.112-7.6,2.104s-2.784,4.872-2.104,7.6l16,64c0.696,2.8,2.848,5,5.624,5.768
		c0.704,0.192,1.424,0.288,2.136,0.288c2.096,0,4.136-0.824,5.656-2.344L368,291.312l34.344,34.344l11.312-11.312L379.312,280
		L397.656,261.656z M348.336,288.352L339,251l37.352,9.336L348.336,288.352z"/>
	<rect x="232" y="96" style="fill:#2D2D2D;" width="16" height="16"/>
	<path style="fill:#2D2D2D;" d="M268.8,73.6C257.664,65.248,245.976,64,240,64c-13.92,0-24.016,6.016-28.8,9.6l9.6,12.8
		c3.184-2.384,9.92-6.4,19.2-6.4c3.984,0,11.776,0.832,19.2,6.4L268.8,73.6z"/>
	<path style="fill:#2D2D2D;" d="M240,48c6.016,0,21.408,1.344,34.488,13.792l11.032-11.584C268.264,33.776,247.936,32,240,32
		c-23.832,0-39.768,12.736-45.52,18.208l11.04,11.584C209.872,57.648,221.944,48,240,48z"/>
	<rect x="400" y="152" style="fill:#2D2D2D;" width="16" height="16"/>
	<rect x="400" y="104" style="fill:#2D2D2D;" width="16" height="32"/>
	<rect x="400" y="48" style="fill:#2D2D2D;" width="16" height="40"/>
	<rect x="64" y="152" style="fill:#2D2D2D;" width="16" height="16"/>
	<rect x="64" y="104" style="fill:#2D2D2D;" width="16" height="32"/>
	<rect x="64" y="48" style="fill:#2D2D2D;" width="16" height="40"/>
</g>
<g>
</g>
<g>
</g>
<g>
</g>
<g>
</g>
<g>
</g>
<g>
</g>
<g>
</g>
<g>
</g>
<g>
</g>
<g>
</g>
<g>
</g>
<g>
</g>
<g>
</g>
<g>
</g>
<g>
</g>
</svg>
