<?xml version="1.0" encoding="iso-8859-1"?>
<!-- Generator: Adobe Illustrator 19.0.0, SVG Export Plug-In . SVG Version: 6.00 Build 0)  -->
<svg xmlns="http://www.w3.org/2000/svg" xmlns:xlink="http://www.w3.org/1999/xlink" version="1.1" id="Layer_1" x="0px" y="0px" viewBox="0 0 512 512" style="enable-background:new 0 0 512 512;" xml:space="preserve" width="512" height="512">
<g>
	<g>
		<g>
			<g>
				<polygon style="fill:#85BC44;" points="287.18,248.224 502,248.224 463.412,170.492 287.18,170.492     "/>
			</g>
			<polygon style="fill:#EDEEEF;" points="463.412,90.092 287.18,90.092 287.18,170.492 463.412,170.492 443.456,130.292    "/>
			<g>
				<polygon style="fill:#ED6637;" points="502,12.36 287.18,12.36 287.18,90.092 463.412,90.092     "/>
			</g>
		</g>
		<g>
			<g>
				<rect x="72.36" y="64.757" style="fill:#ED6637;" width="214.82" height="77.732"/>
			</g>
			<g>
				<path style="fill:#85BC44;" d="M72.36,300.622h180.809c18.784,0,34.011-15.227,34.011-34.011V222.89H72.36V300.622z"/>
			</g>
			<rect x="72.36" y="142.489" style="fill:#EDEEEF;" width="214.82" height="80.4"/>
		</g>
		<g>
			<polygon style="fill:#ED6637;" points="287.18,64.757 225.496,64.757 287.18,12.36    "/>
		</g>
	</g>
	<g>
		<rect x="10" y="17.079" style="fill:#F7B141;" width="62.36" height="482.561"/>
	</g>
	<g>
		<path d="M241.53,192.69c-0.65,0-1.31-0.07-1.95-0.2c-0.64-0.12-1.27-0.32-1.88-0.57c-0.6-0.25-1.18-0.56-1.72-0.92    c-0.55-0.36-1.06-0.78-1.52-1.24c-0.46-0.46-0.88-0.97-1.24-1.52c-0.37-0.54-0.67-1.12-0.92-1.73c-0.25-0.6-0.45-1.23-0.57-1.87    c-0.13-0.64-0.2-1.3-0.2-1.95c0-0.65,0.07-1.31,0.2-1.96c0.12-0.63,0.32-1.26,0.57-1.87c0.25-0.6,0.55-1.18,0.92-1.72    c0.36-0.55,0.78-1.059,1.24-1.52c0.46-0.46,0.97-0.88,1.52-1.24c0.54-0.36,1.12-0.67,1.72-0.92c0.61-0.25,1.24-0.45,1.88-0.58    c1.29-0.26,2.61-0.26,3.9,0c0.64,0.13,1.27,0.33,1.87,0.58c0.61,0.25,1.19,0.56,1.73,0.92c0.55,0.36,1.06,0.78,1.52,1.24    c0.461,0.46,0.88,0.97,1.24,1.52c0.36,0.54,0.67,1.12,0.92,1.72c0.25,0.61,0.45,1.24,0.57,1.87c0.13,0.65,0.2,1.31,0.2,1.96    c0,0.65-0.07,1.31-0.2,1.95c-0.12,0.64-0.32,1.27-0.57,1.87c-0.25,0.61-0.56,1.19-0.92,1.73c-0.36,0.55-0.78,1.06-1.24,1.52    c-0.46,0.46-0.97,0.88-1.52,1.24c-0.54,0.36-1.12,0.67-1.73,0.92c-0.6,0.25-1.23,0.45-1.87,0.57    C242.84,192.62,242.18,192.69,241.53,192.69z"/>
	</g>
	<g>
		<g>
			<path d="M404.25,140.29c-2.63,0-5.21-1.07-7.07-2.93c-0.46-0.46-0.88-0.97-1.24-1.52c-0.36-0.54-0.67-1.12-0.92-1.72     c-0.25-0.61-0.44-1.24-0.57-1.87c-0.13-0.65-0.2-1.31-0.2-1.96c0-0.65,0.07-1.31,0.2-1.95c0.13-0.64,0.32-1.27,0.57-1.87     c0.25-0.61,0.56-1.19,0.92-1.73c0.36-0.55,0.78-1.06,1.24-1.52c0.46-0.46,0.97-0.88,1.52-1.24c0.54-0.36,1.12-0.67,1.73-0.92     c0.6-0.25,1.23-0.441,1.87-0.57c1.29-0.26,2.62-0.26,3.91,0c0.63,0.13,1.26,0.32,1.87,0.57c0.6,0.25,1.18,0.559,1.72,0.92     c0.55,0.36,1.06,0.78,1.52,1.24c0.46,0.46,0.88,0.97,1.25,1.52c0.36,0.54,0.67,1.12,0.92,1.73c0.25,0.6,0.44,1.23,0.57,1.87     c0.13,0.64,0.19,1.3,0.19,1.95c0,0.65-0.06,1.31-0.19,1.96c-0.13,0.63-0.32,1.26-0.57,1.87c-0.25,0.6-0.56,1.18-0.92,1.72     c-0.37,0.55-0.79,1.06-1.25,1.52C409.46,139.22,406.88,140.29,404.25,140.29z"/>
		</g>
		<path d="M472.369,166.046l-17.749-35.754l17.749-35.754l38.588-77.732c1.539-3.1,1.366-6.775-0.458-9.716    c-1.824-2.941-5.038-4.73-8.499-4.73H287.18c-0.419,0-0.83,0.034-1.236,0.084c-0.098,0.012-0.194,0.03-0.292,0.045    c-0.356,0.055-0.705,0.127-1.047,0.218c-0.073,0.019-0.147,0.035-0.219,0.056c-0.416,0.121-0.821,0.266-1.213,0.438    c-0.051,0.022-0.1,0.049-0.151,0.072c-0.346,0.159-0.68,0.337-1.004,0.533c-0.079,0.048-0.159,0.094-0.237,0.144    c-0.359,0.231-0.705,0.481-1.031,0.755c-0.014,0.012-0.031,0.021-0.045,0.033l-58.884,50.019H82.359V17.08c0-5.523-4.477-10-10-10    H10c-5.523,0-10,4.477-10,10V499.64c0,5.523,4.477,10,10,10h62.359c5.523,0,10-4.477,10-10V310.622h170.81    c24.268,0,44.011-19.743,44.011-44.011v-8.387H502c3.461,0,6.675-1.789,8.499-4.73c1.824-2.942,1.997-6.616,0.458-9.716    L472.369,166.046z M62.359,64.757v77.732v80.4v77.732V489.64H20V27.08h42.359V64.757z M277.18,248.224v18.387    c0,13.24-10.771,24.011-24.011,24.011H82.359V232.89h194.82V248.224z M277.18,170.492v42.397H82.359v-20.2h125.14    c5.523,0,10-4.477,10-10c0-5.523-4.477-10-10-10H82.359v-20.2h194.82V170.492z M277.18,90.092v42.397H82.359V74.757h143.137    h51.684V90.092z M277.18,54.757h-24.465l24.465-20.782V54.757z M297.18,64.757V22.36h188.692l-28.66,57.732H297.18V64.757z     M297.18,142.489v-2.197h73.043c5.523,0,10-4.477,10-10c0-5.523-4.477-10-10-10H297.18v-20.2h150.104l-12.785,25.754    c-1.391,2.801-1.391,6.091,0,8.893l12.785,25.754H297.18V142.489z M297.18,238.224V222.89v-42.397h160.032l28.66,57.732H297.18z"/>
	</g>
</g>















</svg>
