<?xml version="1.0" encoding="iso-8859-1"?>
<!-- Generator: Adobe Illustrator 19.0.0, SVG Export Plug-In . SVG Version: 6.00 Build 0)  -->
<svg version="1.1" id="Layer_1" xmlns="http://www.w3.org/2000/svg" xmlns:xlink="http://www.w3.org/1999/xlink" x="0px" y="0px"
	 viewBox="0 0 512 512" style="enable-background:new 0 0 512 512;" xml:space="preserve">
<rect x="74.33" y="266.5" style="fill:#E6E9ED;" width="360.5" height="232"/>
<g>
	<polygon style="fill:#ED5564;" points="307.328,365 274.828,365 274.828,333 239.828,333 239.828,365 207.328,365 207.328,400 
		239.828,400 239.828,433 274.828,433 274.828,400 307.328,400 	"/>
	<path style="fill:#ED5564;" d="M368.219,93.203l-38.984-46.719c0,0-43.406-13.461-45.531-13.461c-2.141,0-46.172-2.93-46.172-2.93
		l-57.516,22.812l-31.25,31.516l-22.734,40.219l-3.547,19.172h6.391l18.469-6.391h26.984l17.047,10.648l13.484,8.258l24.156-17.578
		l29.828-1.328l19.172,1.328l18.469,17.578l17.031-7.547l19.906-10.031h29.812l15.625,5.773v-5.773L368.219,93.203z"/>
</g>
<path d="M437.344,256H320v-32c0-5.891-4.766-10.664-10.656-10.664h-42.672v-62.594c17.938,3.32,32.984,14.852,41.094,30.547
	c9.688-18.727,29.234-31.531,51.781-31.531c18.578,0,35.125,8.703,45.797,22.258v-1.352c0-78.883-61.172-143.477-138.672-148.945
	V10.664l0,0C266.672,4.773,261.891,0,256,0s-10.672,4.773-10.672,10.664c0,0.008,0.016,0.016,0.016,0.031v11.023
	c-77.5,5.469-138.672,70.062-138.672,148.945v1.352c10.656-13.555,27.219-22.258,45.797-22.258
	c22.531,0,42.078,12.805,51.766,31.531c8.125-15.695,23.172-27.227,41.109-30.547v62.594h-42.672
	c-5.891,0-10.672,4.773-10.672,10.664v32H74.672C68.781,256,64,260.766,64,266.672v234.656C64,507.234,68.781,512,74.672,512
	h362.672c5.891,0,10.656-4.766,10.656-10.672V266.672C448,260.766,443.234,256,437.344,256z M214.031,140.383
	c-3.453,2.156-6.734,4.555-9.797,7.188c-3.062-2.633-6.344-5.039-9.797-7.188c-12.578-7.82-27.094-11.953-41.969-11.953
	c-6.156,0-12.188,0.68-18.062,2.047c6.188-18.758,16.719-35.945,31.094-50.32c24.172-24.172,56.312-37.492,90.5-37.492
	s66.344,13.32,90.516,37.492c14.375,14.367,24.906,31.555,31.078,50.32c-5.859-1.367-11.891-2.047-18.047-2.047
	c-14.875,0-29.391,4.133-41.969,11.953c-3.469,2.148-6.734,4.555-9.812,7.188c-3.062-2.633-6.344-5.039-9.797-7.188
	c-12.578-7.82-27.094-11.953-41.969-11.953S226.625,132.562,214.031,140.383z M213.344,234.664h85.328V256h-85.328V234.664z
	 M426.672,490.672H85.344V277.328h341.328V490.672z"/>
<path d="M224,448h64v-32h32v-64h-32v-32h-64v32h-32v64h32V448z M213.344,394.672v-21.344H224h21.344V352v-10.672h21.328V352v21.328
	H288h10.672v21.344H288h-21.328V416v10.672h-21.328V416v-21.328H224H213.344z"/>
<g>
</g>
<g>
</g>
<g>
</g>
<g>
</g>
<g>
</g>
<g>
</g>
<g>
</g>
<g>
</g>
<g>
</g>
<g>
</g>
<g>
</g>
<g>
</g>
<g>
</g>
<g>
</g>
<g>
</g>
</svg>
