<!-- Generated by IcoMoon.io -->
<svg version="1.1" xmlns="http://www.w3.org/2000/svg" width="32" height="32" viewBox="0 0 32 32">
<title>calendar</title>
<path d="M22 23.333h-2.667v2.667h2.667v-2.667zM17.333 14h-2.667v2.667h2.667v-2.667zM22 18.667h-2.667v2.667h2.667v-2.667zM22 14h-2.667v2.667h2.667v-2.667zM26.667 14h-2.667v2.667h2.667v-2.667zM26.667 18.667h-2.667v2.667h2.667v-2.667zM17.333 18.667h-2.667v2.667h2.667v-2.667zM12.667 14h-2.667v2.667h2.667v-2.667zM8 18.667h-2.667v2.667h2.667v-2.667zM12.667 23.333h-2.667v2.667h2.667v-2.667zM8 23.333h-2.667v2.667h2.667v-2.667zM12.667 18.667h-2.667v2.667h2.667v-2.667zM17.333 23.333h-2.667v2.667h2.667v-2.667zM26 2.667v-2.667h-1.333v2.667h-17.333v-2.667h-1.333v2.667h-6v29.333h32v-29.333h-6zM30.667 30.667h-29.333v-20h29.333v20zM30.667 9.333h-29.333v-5.333h4.667v1.333h1.333v-1.333h17.333v1.333h1.333v-1.333h4.667v5.333z"></path>
</svg>
