<!-- Generated by IcoMoon.io -->
<svg version="1.1" xmlns="http://www.w3.org/2000/svg" width="32" height="32" viewBox="0 0 32 32">
<title>shopping-cart-outline</title>
<path d="M9.969 9l-2.495-8h-6.474c-0.552 0-1 0.448-1 1s0.448 1 1 1h5l2.010 6h-0.010l2 12c0 2.209 1.791 4 4 4h11c2.209 0 4-1.791 4-4l3-12h-22.031zM27 21c0 1.104-0.896 2-2 2h-11c-1.105 0-2-0.896-2-2l-1.667-10h19.167l-2.5 10zM14 27c-1.105 0-2 0.895-2 2 0 1.104 0.895 2 2 2s2-0.896 2-2c0-1.105-0.895-2-2-2zM24 27c-1.105 0-2 0.895-2 2 0 1.104 0.895 2 2 2s2-0.896 2-2c0-1.105-0.895-2-2-2z"></path>
</svg>
