<svg width="17" height="16" viewBox="0 0 17 16" fill="none" xmlns="http://www.w3.org/2000/svg">
<path d="M8.49863 0.424737C8.68654 0.0685852 9.19661 0.0685861 9.38452 0.424738L11.582 4.58969C11.6544 4.72703 11.7865 4.82299 11.9395 4.84947L16.5797 5.65233C16.9765 5.72098 17.1341 6.20609 16.8534 6.49486L13.5714 9.8718C13.4632 9.98316 13.4127 10.1384 13.4348 10.2921L14.1051 14.9533C14.1624 15.3519 13.7498 15.6517 13.3884 15.474L9.16256 13.3961C9.0232 13.3276 8.85995 13.3276 8.72059 13.3961L4.49472 15.474C4.13336 15.6517 3.7207 15.3519 3.77802 14.9533L4.44834 10.2921C4.47045 10.1384 4.42 9.98316 4.31177 9.8718L1.02971 6.49486C0.749061 6.20609 0.906681 5.72098 1.30347 5.65233L5.94362 4.84947C6.09664 4.82299 6.22871 4.72703 6.30118 4.58969L8.49863 0.424737Z" fill="#FFD78A"/>
</svg>
