<svg width="17" height="16" viewBox="0 0 17 16" fill="none" xmlns="http://www.w3.org/2000/svg">
<path d="M7.616 0.424737C7.80391 0.0685852 8.31398 0.0685861 8.50189 0.424738L10.6993 4.58969C10.7718 4.72703 10.9039 4.82299 11.0569 4.84947L15.6971 5.65233C16.0938 5.72098 16.2515 6.20609 15.9708 6.49486L12.6888 9.8718C12.5805 9.98316 12.5301 10.1384 12.5522 10.2921L13.2225 14.9533C13.2798 15.3519 12.8672 15.6517 12.5058 15.474L8.27993 13.3961C8.14057 13.3276 7.97732 13.3276 7.83796 13.3961L3.61209 15.474C3.25073 15.6517 2.83807 15.3519 2.89539 14.9533L3.56571 10.2921C3.58782 10.1384 3.53737 9.98316 3.42914 9.8718L0.147085 6.49486C-0.133569 6.20609 0.024052 5.72098 0.420839 5.65233L5.06099 4.84947C5.21401 4.82299 5.34608 4.72703 5.41855 4.58969L7.616 0.424737Z" fill="#EEF5F7"/>
</svg>
